<?xml version="1.0" encoding="UTF-8"?>
<svg xmlns="http://www.w3.org/2000/svg" xmlns:xlink="http://www.w3.org/1999/xlink" viewBox="0 0 48 48" version="1.1" width="48px" height="48px">
<g id="surface1">
<path style=" fill:#A1887F;" d="M 31.914063 6 C 22.6875 6 21.410156 14.5625 18.011719 18.089844 C 14.648438 21.566406 6 24.117188 6 32.128906 C 6 33.980469 6.84375 35.949219 8.984375 38.011719 C 10.117188 39.113281 11.691406 39.621094 13.535156 39.621094 C 18.28125 39.621094 24.851563 36.210938 30.5 30.367188 C 38.339844 22.242188 41.414063 12.496094 37.382813 8.59375 C 35.464844 6.742188 33.640625 6 31.914063 6 Z "/>
<path style=" fill:#6D4C41;" d="M 37.625 8.882813 C 41.253906 12.949219 38.160156 22.425781 30.5 30.367188 C 24.851563 36.210938 18.28125 39.621094 13.535156 39.621094 C 12.171875 39.621094 10.960938 39.339844 9.960938 38.75 C 16.921875 44.382813 27.125 42.457031 34.753906 34.554688 C 42.53125 26.492188 44.882813 16.246094 37.625 8.882813 Z "/>
<path style=" fill:#6D4C41;" d="M 25.277344 17.703125 C 24.671875 19.386719 24.148438 21.375 22.632813 22.945313 C 21.175781 24.464844 18.652344 25.554688 17.101563 26.328125 C 13.101563 28.304688 11.621094 32.546875 11.910156 35.394531 C 12.789063 32.171875 15.941406 30.234375 18.558594 28.960938 C 20.28125 28.113281 23.199219 27.160156 25.058594 25.230469 C 27.050781 23.179688 27.371094 20.765625 28.054688 18.941406 C 28.992188 16.476563 31.933594 12.808594 34.710938 11.195313 C 32.226563 11.125 27.15625 12.535156 25.277344 17.703125 Z "/>
</g>
</svg>
